<svg version="1.1" xmlns="http://www.w3.org/2000/svg" xmlns:xlink="http://www.w3.org/1999/xlink" width="48" height="48"><defs><linearGradient x1="9.82525" y1="11.09968" x2="59.38796" y2="58.11351" gradientUnits="userSpaceOnUse" id="color-1"><stop offset="0" stop-color="#000000" stop-opacity="0.3"></stop><stop offset="1" stop-color="#000000" stop-opacity="0"></stop></linearGradient><filter id="dropshadow-base"><feColorMatrix type="matrix" values="0 0 0 0 0  0 0 0 0 0  0 0 0 0 0  0 0 0 .8 0"></feColorMatrix> <feOffset dx="0" dy="1"></feOffset> <feGaussianBlur stdDeviation="1"></feGaussianBlur> <feComposite in="SourceGraphic"></feComposite></filter><filter id="dropshadow-banner" x="-10%" y="-10%" width="120%" height="130%"><feColorMatrix type="matrix" values="0 0 0 0 0  0 0 0 0 0  0 0 0 0 0  0 0 0 .4 0"></feColorMatrix> <feOffset dx="0" dy="1"></feOffset> <feGaussianBlur stdDeviation="0.5"></feGaussianBlur> <feComposite in="SourceGraphic"></feComposite></filter></defs><g fill="none" fill-rule="nonzero" stroke="none" stroke-width="none" stroke-linecap="butt" stroke-linejoin="miter" stroke-miterlimit="10" stroke-dasharray="" stroke-dashoffset="0" font-family="none" font-weight="none" font-size="none" text-anchor="none" style="mix-blend-mode: normal"><path d="M2,24c0,-12.15026 9.84974,-22 22,-22c12.15026,0 22,9.84974 22,22c0,12.15026 -9.84974,22 -22,22c-12.15026,0 -22,-9.84974 -22,-22z" id="base 1 5" fill="#388e3c" stroke-width="1"></path><path d="M17.36248,36.10171c0.2628,0.2628 0.5746,0.46667 0.91296,0.60277l-1.51426,-1.51426l-6.73178,-16.2187l0.00001,-0.00001c-0.57002,-1.37078 0.095,-2.95873 1.47936,-3.52875l9.98909,-4.1395c0.3393,-0.12214 0.69217,-0.20358 1.04505,-0.20358c0.69957,0.00897 1.37543,0.29058 1.867,0.78215l5.42296,5.42296l-2.56686,-6.20511h1.96797c0.74957,0 1.42817,0.30382 1.91939,0.79504l3.52304,3.52304v-2.22796l1.81866,0.76004c0.34424,0.14037 0.64239,0.34246 0.88797,0.58804l8.60039,8.60039c0.01101,0.28588 0.01657,0.57317 0.01657,0.86175c0,11.11503 -8.2428,20.30486 -18.94908,21.79016z" fill="url(#color-1)" stroke-width="1"></path><path d="M36.49508,13.94983l-1.81867,-0.76004v12.25564l3.29803,-7.95327c0.55646,-1.38436 -0.08143,-2.9723 -1.47936,-3.54233zM10.02941,18.97152l6.73178,16.21871c0.42074,1.04505 1.4115,1.68295 2.45656,1.71009c0.35288,0 0.71932,-0.06786 1.0722,-0.21715l10.00267,-4.1395c1.01791,-0.42074 1.64223,-1.42507 1.66937,-2.42941c0.01357,-0.35288 -0.05429,-0.74647 -0.17644,-1.09934l-6.78607,-16.21871c-0.39359,-1.04505 -1.39793,-1.68295 -2.45656,-1.69652c-0.35288,0 -0.70575,0.08143 -1.04505,0.20358l-9.9891,4.1395c-1.38436,0.57003 -2.04939,2.15797 -1.47936,3.52876zM31.94841,13.81411c0,-1.49914 -1.21529,-2.71443 -2.71443,-2.71443h-1.96796l4.68239,11.31917z" fill="none" stroke-width="0"></path><path d="M36.49508,13.94983c1.39793,0.57003 2.03582,2.15797 1.47936,3.54233l-3.29803,7.95327v-12.25564zM10.02941,18.97152c-0.57003,-1.37079 0.095,-2.95873 1.47936,-3.52876l9.9891,-4.1395c0.3393,-0.12215 0.69218,-0.20358 1.04505,-0.20358c1.05863,0.01357 2.06297,0.65146 2.45656,1.69652l6.78607,16.21871c0.12215,0.35288 0.19001,0.74647 0.17644,1.09934c-0.02714,1.00434 -0.65146,2.00868 -1.66937,2.42941l-10.00267,4.1395c-0.35288,0.14929 -0.71932,0.21715 -1.0722,0.21715c-1.04505,-0.02714 -2.03582,-0.66503 -2.45656,-1.71009zM31.94841,22.41885l-4.68239,-11.31917h1.96796c1.49914,0 2.71443,1.21529 2.71443,2.71443z" fill="#ffffff" stroke-width="0"></path><path d="M2,24c0,-12.15026 9.84974,-22 22,-22c12.15026,0 22,9.84974 22,22c0,12.15026 -9.84974,22 -22,22c-12.15026,0 -22,-9.84974 -22,-22z" id="base 1 1 1" fill="none" stroke-width="1"></path><g fill="#000000" stroke-width="1" font-family="Roboto, sans-serif" font-weight="normal" font-size="14" text-anchor="start"></g><rect x="2" y="2" width="44" height="22" fill="none" stroke-width="1"></rect><path d="M2,24v-22h44v22z" fill="none" stroke-width="1"></path><path d="M2,24v-22h44v22z" fill="none" stroke-width="1"></path><path d="M2,24v-22h44v22z" fill="none" stroke-width="1"></path><path d="M2,24v-22h44v22z" fill="none" stroke-width="1"></path></g></svg>