<svg id="Layer_1" data-name="Layer 1" xmlns="http://www.w3.org/2000/svg" xmlns:xlink="http://www.w3.org/1999/xlink" viewBox="0 0 400 100"><defs><style>.cls-1,.cls-5{fill:#388e3c;}.cls-2{fill:url(#linear-gradient);}.cls-3{fill:none;}.cls-4{fill:#fff;}.cls-5{font-size:119px;font-family:Roboto-Regular, Roboto;}</style><linearGradient id="linear-gradient" x1="218.99" y1="-77.56" x2="320.37" y2="-173.72" gradientTransform="matrix(1, 0, 0, -1, -196, -56)" gradientUnits="userSpaceOnUse"><stop offset="0" stop-opacity="0.3"/><stop offset="1" stop-opacity="0"/></linearGradient></defs><title>Artboard 1</title><path id="base_1_5" data-name="base 1 5" class="cls-1" d="M5,50A45,45,0,1,1,50,95,45,45,0,0,1,5,50Z"/><path class="cls-2" d="M36.19,75a5.59,5.59,0,0,0,1.87,1.23L35,73.18,21.19,40h0a5.54,5.54,0,0,1,3-7.22l20.43-8.47a6.36,6.36,0,0,1,2.14-.42,5.52,5.52,0,0,1,3.82,1.6L61.69,36.59,56.44,23.9h4a5.53,5.53,0,0,1,3.93,1.63l7.21,7.21V28.18l3.72,1.55a5.49,5.49,0,0,1,1.82,1.2L94.73,48.52q0,.88,0,1.76A45,45,0,0,1,56,94.86Z"/><path class="cls-3" d="M75.32,29.44,71.6,27.89V53l6.75-16.27A5.56,5.56,0,0,0,75.32,29.44ZM21.42,39.71,35.19,72.89a5.42,5.42,0,0,0,7.22,3.05l20.46-8.47a5.6,5.6,0,0,0,3.41-5,6.36,6.36,0,0,0-.36-2.25L52,27.08a5.42,5.42,0,0,0-5-3.47,6.36,6.36,0,0,0-2.14.42L24.45,32.5a5.54,5.54,0,0,0-3,7.22ZM60.65,23.9h-4L66.2,47.05V29.45A5.55,5.55,0,0,0,60.65,23.9Z"/><path class="cls-4" d="M75.32,29.44a5.56,5.56,0,0,1,3,7.25L71.6,53V27.89ZM21.42,39.71a5.54,5.54,0,0,1,3-7.22L44.88,24A6.36,6.36,0,0,1,47,23.61a5.42,5.42,0,0,1,5,3.47L65.92,60.26a6.36,6.36,0,0,1,.36,2.25,5.6,5.6,0,0,1-3.41,5L42.41,75.94a5.42,5.42,0,0,1-7.22-3.05ZM66.2,47.05,56.62,23.9h4a5.55,5.55,0,0,1,5.55,5.55Z"/><path id="base_1_1_1" data-name="base 1 1 1" class="cls-3" d="M5,50A45,45,0,1,1,50,95,45,45,0,0,1,5,50Z"/><rect class="cls-3" x="5" y="5" width="90" height="45"/><path class="cls-3" d="M5,50V5H95V50Z"/><path class="cls-3" d="M5,50V5H95V50Z"/><path class="cls-3" d="M5,50V5H95V50Z"/><path class="cls-3" d="M5,50V5H95V50Z"/><text class="cls-5" transform="translate(100.61 92.25)">SAGE</text></svg>