<svg xmlns="http://www.w3.org/2000/svg" xmlns:xlink="http://www.w3.org/1999/xlink" viewBox="0 0 388.46387 90"><defs><style>.a{fill:#388e3c;}.b{fill:url(#a);}.c{fill:none;}.d{fill:#fff;}</style><linearGradient id="a" x1="218.99092" y1="-77.55664" x2="320.36919" y2="-173.7213" gradientTransform="matrix(1, 0, 0, -1, -196, -56)" gradientUnits="userSpaceOnUse"><stop offset="0" stop-opacity="0.3"/><stop offset="1" stop-opacity="0"/></linearGradient></defs><title>text-logo</title><path class="a" d="M5,50A45,45,0,1,1,50,95,45,45,0,0,1,5,50Z" transform="translate(-5 -5)"/><path class="b" d="M36.18514,75.04051a5.59388,5.59388,0,0,0,1.86742,1.23294L34.95521,73.1761,21.18566,40.00149l0,0a5.5364,5.5364,0,0,1,3.026-7.2179l20.43223-8.46716A6.35685,6.35685,0,0,1,46.78148,23.9a5.51794,5.51794,0,0,1,3.81886,1.59985L61.69276,36.59227,56.44236,23.9h4.02539a5.53483,5.53483,0,0,1,3.926,1.62622L71.6,32.73244V28.17525l3.72,1.55463a5.49189,5.49189,0,0,1,1.8163,1.20281L94.728,48.52439q.03378.87713.0339,1.76267A45.00953,45.00953,0,0,1,56.00241,94.85784Z" transform="translate(-5 -5)"/><path class="c" d="M75.32,29.44283,71.6,27.88821V52.95656l6.746-16.26805A5.55763,5.55763,0,0,0,75.32,29.44283ZM21.42379,39.71447,35.19334,72.88911a5.421,5.421,0,0,0,7.21792,3.05374l20.46-8.46716a5.60271,5.60271,0,0,0,3.41462-4.96925,6.35755,6.35755,0,0,0-.3609-2.24865L52.0444,27.08316A5.4241,5.4241,0,0,0,47.01962,23.613a6.35637,6.35637,0,0,0-2.1376.41641L24.44976,32.49658a5.5364,5.5364,0,0,0-3.026,7.21792ZM60.64776,23.9H56.62238L66.2,47.05285V29.45224A5.55224,5.55224,0,0,0,60.64776,23.9Z" transform="translate(-5 -5)"/><path class="d" d="M75.32,29.44283a5.55763,5.55763,0,0,1,3.026,7.24568L71.6,52.95656V27.88821ZM21.42379,39.71447a5.5364,5.5364,0,0,1,3.026-7.21792L44.882,24.02939a6.35644,6.35644,0,0,1,2.1376-.41641,5.42407,5.42407,0,0,1,5.02478,3.47015L65.925,60.25777a6.3576,6.3576,0,0,1,.3609,2.24865,5.60269,5.60269,0,0,1-3.41462,4.96925l-20.46,8.46716a5.421,5.421,0,0,1-7.21792-3.05374ZM66.2,47.05285,56.62238,23.9h4.02537A5.55224,5.55224,0,0,1,66.2,29.45224Z" transform="translate(-5 -5)"/><path class="c" d="M5,50A45,45,0,1,1,50,95,45,45,0,0,1,5,50Z" transform="translate(-5 -5)"/><rect class="c" width="90" height="45"/><path class="c" d="M5,50V5H95V50Z" transform="translate(-5 -5)"/><path class="c" d="M5,50V5H95V50Z" transform="translate(-5 -5)"/><path class="c" d="M5,50V5H95V50Z" transform="translate(-5 -5)"/><path class="c" d="M5,50V5H95V50Z" transform="translate(-5 -5)"/><path class="a" d="M135.35986,54.53906q-14.35254-4.125-20.88867-10.13867a19.37156,19.37156,0,0,1-6.53711-14.84619,20.46425,20.46425,0,0,1,7.98926-16.53076q7.98926-6.5376,20.77295-6.53711a34.6715,34.6715,0,0,1,15.54346,3.37012,25.56472,25.56472,0,0,1,10.5752,9.29687,23.77822,23.77822,0,0,1,3.74756,12.95752H155.34814q0-7.697-4.88086-12.09961-4.88086-4.40112-13.771-4.40234-8.25146,0-12.87061,3.63867a12.13749,12.13749,0,0,0-4.61914,10.09863,10.91674,10.91674,0,0,0,4.38672,8.76123q4.38721,3.58008,14.93359,6.54883,10.54541,2.96924,16.502,6.542a25.05149,25.05149,0,0,1,8.832,8.33887,21.28233,21.28233,0,0,1,2.876,11.21387,19.76581,19.76581,0,0,1-8.01855,16.47266q-8.01855,6.189-21.44092,6.18848a39.77678,39.77678,0,0,1-16.26953-3.34082,27.38,27.38,0,0,1-11.6499-9.15137,22.33184,22.33184,0,0,1-4.09668-13.19043h11.21436a14.571,14.571,0,0,0,5.66553,12.11523q5.66455,4.44434,15.13623,4.44434,8.83154,0,13.53857-3.60156a11.70261,11.70261,0,0,0,4.70654-9.82031q0-6.2168-4.35791-9.61621Q146.80664,57.85107,135.35986,54.53906Z" transform="translate(-5 -5)"/><path class="a" d="M227.748,70.11133H192.30322L184.34277,92.25H172.83789L205.14453,7.64844h9.76172L247.27148,92.25H235.82422Zm-32.07471-9.12207h28.76221L210.02539,21.41943Z" transform="translate(-5 -5)"/><path class="a" d="M321.123,81.15234a25.774,25.774,0,0,1-11.999,9.209,48.45429,48.45429,0,0,1-17.9248,3.05078,34.76356,34.76356,0,0,1-18.36133-4.85156,32.32574,32.32574,0,0,1-12.40625-13.80078,47.64967,47.64967,0,0,1-4.50293-20.74316V46.63672q0-19.11548,8.91895-29.6333Q273.76709,6.4873,289.91992,6.48633q13.248,0,21.3252,6.76953,8.07568,6.769,9.87793,19.20361H309.9668q-3.1377-16.8501-19.98828-16.85059-11.21484,0-16.99609,7.88037-5.78174,7.88013-5.83984,22.8252v6.9209q0,14.24707,6.50781,22.65039,6.5083,8.40381,17.60645,8.40332a38.874,38.874,0,0,0,10.98145-1.39062,16.98948,16.98948,0,0,0,7.78711-4.69531v-18.957h-19.582V50.123H321.123Z" transform="translate(-5 -5)"/><path class="a" d="M387.53711,53.14453H350.873V83.127h42.59082V92.25H339.7168V7.64844h53.166V16.771H350.873V44.02246h36.66406Z" transform="translate(-5 -5)"/></svg>