<?xml version="1.0" standalone="no"?>
<!DOCTYPE svg PUBLIC "-//W3C//DTD SVG 20010904//EN"
 "http://www.w3.org/TR/2001/REC-SVG-20010904/DTD/svg10.dtd">
<svg version="1.0" xmlns="http://www.w3.org/2000/svg"
 width="700.000000pt" height="700.000000pt" viewBox="0 0 700.000000 700.000000"
 preserveAspectRatio="xMidYMid meet">
<metadata>
Created by potrace 1.11, written by Peter Selinger 2001-2013
</metadata>
<g transform="translate(0.000000,700.000000) scale(0.100000,-0.100000)"
fill="#000000" stroke="none">
<path d="M3355 6704 c-609 -37 -1144 -211 -1620 -529 -202 -135 -333 -241
-501 -409 -528 -529 -839 -1183 -925 -1946 -15 -135 -15 -505 0 -640 61 -542
231 -1018 516 -1445 135 -202 241 -333 409 -501 529 -528 1182 -839 1946 -925
152 -17 517 -14 685 5 1378 160 2499 1185 2775 2536 48 235 63 381 64 630 1
281 -21 481 -80 742 -82 363 -241 731 -449 1043 -135 202 -241 333 -409 501
-168 168 -299 274 -501 409 -424 283 -919 461 -1435 514 -110 11 -388 20 -475
15z m90 -1359 c64 -31 134 -89 164 -139 32 -51 1027 -2437 1041 -2495 19 -81
9 -177 -28 -255 -34 -73 -107 -153 -168 -184 -74 -37 -1491 -621 -1549 -638
-147 -42 -327 23 -415 151 -25 36 -974 2303 -1032 2465 -27 76 -27 197 0 267
28 74 83 144 144 186 50 34 1390 598 1553 654 96 32 205 28 290 -12z m970 6
c43 -18 77 -41 120 -85 67 -68 101 -128 115 -208 6 -33 9 -297 8 -685 l-3
-633 -332 803 c-183 441 -335 810 -339 820 -6 18 2 18 182 15 170 -3 195 -6
249 -27z m775 -330 c166 -70 211 -94 258 -141 56 -56 91 -122 108 -203 25
-118 18 -141 -248 -782 -132 -319 -242 -582 -244 -584 -2 -2 -4 392 -4 877 0
485 4 882 8 882 4 0 59 -22 122 -49z"/>
</g>
</svg>
